<?xml version="1.0" encoding="utf-8"?>
<!-- Generator: Adobe Illustrator 18.0.0, SVG Export Plug-In . SVG Version: 6.00 Build 0)  -->
<!DOCTYPE svg PUBLIC "-//W3C//DTD SVG 1.1//EN" "http://www.w3.org/Graphics/SVG/1.1/DTD/svg11.dtd">
<svg version="1.1" id="Layer_1" xmlns="http://www.w3.org/2000/svg" xmlns:xlink="http://www.w3.org/1999/xlink" x="0px" y="0px"
	 viewBox="0 0 102.7 18.5" enable-background="new 0 0 102.7 18.5" xml:space="preserve">
<circle fill="#FEC10F" cx="8.4" cy="13.7" r="1.1"/>
<circle fill="#FEC10F" cx="81.4" cy="12.8" r="0.9"/>
<path fill="#FFFFFF" d="M9.6,12.4c0.1,0,0.2,0,0.2,0c0.7-0.1,1.2,0,1.5,0.8c0.2,0.4,0.4,1,0.8,1.2c0.3,0.2,0.9,0.1,1.4,0.1
	c0.5,0,1,0,1.6,0c-1.2-1.7-2.8-2.8-4.9-3.1c-2.9-0.4-5.2,0.6-7,3.1c0.8,0,1.6,0,2.4,0c-0.2-0.3-0.3-0.5-0.4-0.7
	C5,13.3,5.1,13,5.3,12.8c0.3-0.2,0.6-0.1,0.8,0.3c0.3,0.5,0.6,1,0.9,1.5c0.3,0.5,0,0.9-0.5,0.9c-1.4,0-2.7,0-4.1,0
	c-0.6,0-0.8-0.4-0.5-0.9c1.3-2.3,3.2-3.8,5.8-4.3c0.2,0,0.4-0.1,0.7-0.1c-0.2-0.4-0.4-0.7-0.6-1C7.4,8.5,7,7.8,6.6,7.2
	c-0.2-0.3-0.2-0.5,0-0.8c0.7-1.1,1.3-2.3,2-3.4c0.3-0.5,0.8-0.5,1.1,0c1.3,2.2,2.6,4.5,3.9,6.8c0.2,0.4,0.1,0.7-0.1,0.8
	c-0.3,0.2-0.6,0.1-0.8-0.3c-1.1-1.9-2.2-3.7-3.2-5.6C9.3,4.5,9.2,4.4,9.1,4.2C9.1,4.3,9,4.3,9,4.4C8.6,5.1,8.1,5.8,7.7,6.5
	C7.7,6.7,7.7,6.9,7.7,7c0.5,1,1.1,2,1.7,2.9c0.1,0.1,0.3,0.2,0.5,0.3c2.9,0.3,5,1.8,6.4,4.2c0.4,0.7,0.2,1-0.6,1c-1.3,0-2.5,0-3.8,0
	c-0.4,0-0.6-0.1-0.8-0.5C10.6,14.2,10.2,13.3,9.6,12.4z"/>
<g>
	<path fill="#FEC10F" d="M84.4,6.5H86c1.3,0,2.2,0.3,2.8,1s0.9,1.4,0.9,2.3c0,0.9-0.3,1.6-1,2.3c-0.6,0.7-1.6,1-2.8,1h-1.6V6.5z
		 M85.3,7.4v4.8h0.1c0.7,0,1.2,0,1.5-0.1c0.3-0.1,0.7-0.2,1-0.4c0.3-0.2,0.5-0.5,0.7-0.8c0.2-0.3,0.3-0.7,0.3-1.1
		c0-0.5-0.1-1-0.4-1.4c-0.3-0.4-0.6-0.7-1-0.8s-0.9-0.2-1.6-0.2H85.3z"/>
	<path fill="#FEC10F" d="M95,11.2h-3.7c0.1,0.4,0.3,0.8,0.5,1c0.3,0.2,0.6,0.3,0.9,0.3c0.5,0,0.9-0.2,1.3-0.6l0.7,0.5
		c-0.5,0.6-1.2,1-2,1c-0.6,0-1.2-0.2-1.6-0.7c-0.4-0.4-0.6-1-0.6-1.6c0-0.6,0.2-1.1,0.7-1.6c0.4-0.4,1-0.7,1.6-0.7
		c0.6,0,1.1,0.2,1.6,0.7C94.8,9.9,95,10.5,95,11.2z M91.4,10.5H94c-0.3-0.6-0.7-0.9-1.3-0.9C92.1,9.6,91.7,9.9,91.4,10.5z"/>
	<path fill="#FEC10F" d="M95.6,8.9h0.9l1.2,2.5L99,8.9h1l-2.2,4.4L95.6,8.9z"/>
</g>
<g>
	<path fill="#FFFFFF" d="M28.5,4l2.5,9.7h-1.2l-1.5-5.9L25.6,14L23,7.7l-1.6,5.9h-1.2L22.7,4l2.9,6.9L28.5,4z"/>
	<path fill="#FFFFFF" d="M37.3,7.7h1.3v6h-1.3v-1.2c-0.6,0.9-1.4,1.4-2.3,1.4c-0.8,0-1.5-0.3-2-0.9s-0.8-1.4-0.8-2.3
		c0-0.8,0.3-1.6,0.8-2.2c0.6-0.6,1.2-0.9,2-0.9c0.5,0,0.9,0.1,1.3,0.4s0.7,0.6,1,1V7.7z M37.5,10.7c0-0.5-0.2-1-0.6-1.4
		c-0.4-0.4-0.9-0.6-1.4-0.6c-0.5,0-1,0.2-1.4,0.6c-0.4,0.4-0.6,0.8-0.6,1.4c0,0.6,0.2,1,0.6,1.4c0.4,0.4,0.9,0.6,1.4,0.6
		c0.5,0,1-0.2,1.4-0.6C37.3,11.7,37.5,11.2,37.5,10.7z"/>
	<path fill="#FFFFFF" d="M39.8,7.7h1.3l1.7,3.5l1.7-3.5h1.3l-3,6.2L39.8,7.7z"/>
	<path fill="#FFFFFF" d="M52.7,10.9h-5.1c0.1,0.6,0.4,1.1,0.8,1.3c0.4,0.3,0.8,0.4,1.3,0.4c0.7,0,1.3-0.3,1.8-0.9l0.9,0.7
		c-0.7,0.9-1.6,1.3-2.8,1.3c-0.9,0-1.6-0.3-2.2-0.9c-0.6-0.6-0.9-1.4-0.9-2.3c0-0.8,0.3-1.6,0.9-2.2c0.6-0.6,1.4-0.9,2.2-0.9
		c0.9,0,1.6,0.3,2.2,0.9S52.7,9.9,52.7,10.9z M47.7,9.9h3.7c-0.4-0.8-1-1.2-1.8-1.2C48.7,8.7,48.1,9.1,47.7,9.9z"/>
	<path fill="#FFFFFF" d="M55.5,7.7v1.2c0.3-0.5,0.6-0.9,0.8-1.1s0.6-0.3,1.1-0.3c0.1,0,0.3,0,0.5,0.1l-0.4,1.3
		c-0.2,0-0.4-0.1-0.5-0.1c-0.4,0-0.8,0.1-1.1,0.4c-0.3,0.3-0.4,0.7-0.4,1.1v3.3h-1.3v-6H55.5z"/>
	<path fill="#FFFFFF" d="M58.9,5.7c0-0.3,0.1-0.5,0.3-0.7s0.4-0.3,0.7-0.3c0.3,0,0.5,0.1,0.7,0.3c0.2,0.2,0.3,0.4,0.3,0.7
		c0,0.3-0.1,0.5-0.3,0.7c-0.2,0.2-0.4,0.3-0.7,0.3c-0.3,0-0.5-0.1-0.7-0.3S58.9,5.9,58.9,5.7z M59.2,7.7h1.3v6h-1.3V7.7z"/>
	<path fill="#FFFFFF" d="M66.9,11.8v1.4c-0.6,0.4-1.3,0.6-1.9,0.6c-0.8,0-1.6-0.3-2.2-0.9c-0.6-0.6-0.9-1.3-0.9-2.2
		c0-0.9,0.3-1.7,0.9-2.3c0.6-0.6,1.4-0.9,2.3-0.9c0.6,0,1.1,0.1,1.7,0.4v1.4c-0.6-0.4-1.2-0.6-1.8-0.6c-0.5,0-1,0.2-1.4,0.6
		c-0.4,0.4-0.6,0.8-0.6,1.3c0,0.6,0.2,1,0.6,1.4c0.4,0.4,0.8,0.6,1.4,0.6C65.5,12.5,66.2,12.3,66.9,11.8z"/>
	<path fill="#FFFFFF" d="M68.3,4.2h1.3v6.1l2.5-2.6h1.6l-2.6,2.8l2.6,3.2h-1.6l-2.6-3.2v3.2h-1.3V4.2z"/>
	<path fill="#FFFFFF" d="M78.5,8.4l-0.8,0.7c-0.2-0.2-0.4-0.3-0.6-0.4c-0.2-0.1-0.3-0.1-0.6-0.1c-0.5,0-0.8,0.2-0.8,0.6
		c0,0.3,0.3,0.5,1,0.8c0.7,0.3,1.1,0.5,1.4,0.8s0.4,0.7,0.4,1.1c0,0.5-0.2,0.9-0.6,1.3s-0.9,0.6-1.5,0.6c-0.8,0-1.5-0.4-2.1-1.2
		l1-0.5c0.3,0.3,0.7,0.5,1.1,0.5c0.3,0,0.5-0.1,0.7-0.2c0.2-0.1,0.3-0.3,0.3-0.5c0-0.3-0.3-0.6-1-0.9c-0.7-0.3-1.2-0.5-1.4-0.8
		c-0.3-0.3-0.4-0.6-0.4-1c0-0.5,0.2-0.9,0.6-1.2c0.4-0.3,0.8-0.5,1.4-0.5S77.8,7.8,78.5,8.4z"/>
</g>
</svg>
